<svg xmlns="http://www.w3.org/2000/svg" viewBox="0 0 512 512" width="512" height="512">
  <rect x="0" y="0" width="512" height="512" rx="120" fill="#E85D00" />
  <!-- Centered, bold diagonal pencil with clean vector styling -->
  <g transform="translate(108, 108)">
    <path d="M256.7 31.3 C244.2 18.8 223.8 18.8 211.3 31.3 L42.3 200.3 C40.3 202.3 38.9 204.8 38.2 207.6 L18.6 286.2 C17.0 292.5 18.8 299.1 23.4 303.7 C27.9 308.2 34.6 310.1 40.9 308.4 L119.5 288.9 C122.3 288.2 124.8 286.8 126.8 284.8 L295.8 115.8 C308.3 103.3 308.3 82.9 295.8 70.4 Z" fill="none" stroke="#FFFFFF" stroke-width="26" stroke-linecap="round" stroke-linejoin="round" />
    <path d="M190 52.6 L234.4 97" fill="none" stroke="#FFFFFF" stroke-width="26" stroke-linecap="round" />
    <!-- Tip lead line -->
    <path d="M38.2 207.6 L81.5 250.9" fill="none" stroke="#FFFFFF" stroke-width="20" stroke-linecap="round" />
  </g>
</svg>
